<svg viewBox="0 0 250 220" xmlns="http://www.w3.org/2000/svg" role="img" aria-labelledby="title">
<title id="title">WrenPath icon</title>

<line x1="30" y1="190" x2="210" y2="190" stroke="#a98f73" stroke-width="7" stroke-linecap="round"/>

<line x1="122" y1="176" x2="117" y2="190" stroke="#8a6a48" stroke-width="4.5" stroke-linecap="round"/>
<line x1="152" y1="176" x2="158" y2="190" stroke="#8a6a48" stroke-width="4.5" stroke-linecap="round"/>

<g stroke="#f0ac3f" stroke-width="3.5" fill="none" opacity="0.9">
  <line x1="95" y1="148" x2="72" y2="112"/>
  <line x1="72" y1="112" x2="54" y2="76"/>
  <line x1="54" y1="76" x2="42" y2="42"/>
</g>
<circle cx="95" cy="148" r="8" fill="#f0ac3f"/>
<circle cx="72" cy="112" r="7" fill="#f0ac3f"/>
<circle cx="54" cy="76" r="6" fill="#f0ac3f"/>
<circle cx="42" cy="42" r="9" fill="#fbd490"/>
<circle cx="42" cy="42" r="4.5" fill="#fff3da"/>

<ellipse cx="140" cy="140" rx="52" ry="42" fill="#0047ab"/>
<path d="M 108 122 Q 138 104 158 130 Q 136 152 108 146 Z" fill="#003580"/>
<circle cx="186" cy="103" r="29" fill="#3d74d6"/>
<polygon points="211,98 233,106 211,116" fill="#e0965a"/>
<circle cx="193" cy="96" r="5.5" fill="#fdfdfd"/>
<circle cx="194.5" cy="96" r="2.6" fill="#22292f"/>
</svg>
